<svg width="512" height="512" viewBox="0 0 512 512" fill="none" xmlns="http://www.w3.org/2000/svg">
    <style>
            path {
                fill: #232323;
            }
            @media (prefers-color-scheme: dark) {
                path {
                    fill: #FFFFFF;
                }
            }
    </style>
    <g>
        <path d="M358.371 225.75L266.262 238.791L266.203 272.182L358.305 259.141L358.122 359.299L235.315 376.692L235.374 343.301L327.483 330.26L327.541 296.869L235.44 309.917L235.622 209.752L358.429 192.366L358.371 225.75Z"/>
        <path d="M112.816 227.144L112.757 260.535L82.059 264.88L81.8103 398.429L204.617 381.036L204.924 214.104L112.816 227.144ZM174.095 285.223L174.036 318.606L173.978 351.99L143.28 356.334L112.581 360.679L112.64 327.295L112.699 293.912L112.757 260.528L143.455 256.183L174.153 251.839L174.095 285.223Z"/>
        <path d="M481.112 241.748L419.708 250.445L419.833 183.67L389.127 188.015L388.82 354.955L419.525 350.603L419.65 283.828L481.053 275.132L480.929 341.906L511.634 337.562L511.941 170.629L481.236 174.974L481.112 241.748Z"/>
        <path d="M512 137.238L460.895 109.227L31.0711 170.094L31.0126 203.477L0.3072 207.829L0 374.762L51.1049 402.773L51.4121 235.841L82.1175 231.489L82.176 198.098L512 137.238Z"/>
    </g>
</svg>
