<svg width="512" height="512" viewBox="0 0 512 512" fill="none" xmlns="http://www.w3.org/2000/svg">
    <style>
        path {
            fill: #232323;
        }
        @media (prefers-color-scheme: dark) {
            path {
                fill: #FFFFFF;
            }
        }
    </style>
    <path d="M277.236 151.598L277.085 220.095L213.83 228.977L213.378 502.967L466.247 467.288L467 124.951L277.236 151.598ZM403.444 270.829L403.293 339.326L403.143 407.824L339.888 416.706L276.633 425.588L276.784 357.09L276.934 288.593L277.085 220.095L340.34 211.213L403.595 202.331L403.444 270.829Z"/>
    <path d="M467 57.5078L361.726 0L109.008 34.6251L108.857 103.123L45.6024 112.005L45 454.492L150.274 512L150.877 169.512L214.131 160.63L214.282 92.1329L467 57.5078Z"/>
</svg>
